<?xml version="1.0" encoding="UTF-8"?><svg xmlns="http://www.w3.org/2000/svg" xmlns:xlink="http://www.w3.org/1999/xlink" viewBox="0 0 667.43 367"><defs><style>.b{letter-spacing:0em;}.c,.d{fill:none;}.c,.d,.e{stroke-miterlimit:10;}.c,.e{stroke:#000;}.f{opacity:.6;}.g{letter-spacing:0em;}.h{font-size:21px;}.h,.i,.j{font-family:Roboto-Regular, Roboto;}.k{isolation:isolate;}.i{font-size:16px;}.l{font-family:MyriadPro-Regular, Myriad Pro;font-size:21.55px;}.m{letter-spacing:0em;}.n{letter-spacing:0em;}.o{letter-spacing:0em;}.p{opacity:.8;}.j{font-size:13px;}.q{letter-spacing:0em;}.r{letter-spacing:-.01em;}.s{letter-spacing:.01em;}.d{stroke:#a0a0a0;}.e{fill:#d9fce3;mix-blend-mode:multiply;opacity:.78;stroke-width:.5px;}.t{fill:#a68181;}.u{letter-spacing:0em;}.v{letter-spacing:0em;}.w{letter-spacing:-.01em;}.x{letter-spacing:.02em;}.y{letter-spacing:-.01em;}</style></defs><g class="k"><g id="a"><g class="p"><rect class="t" x="478.64" y="224.19" width="74.93" height="75.22"/><path d="M553.08,224.69v74.22h-73.93v-74.22h73.93m1-1h-75.93v76.22h75.93v-76.22h0Z"/></g><g><rect class="t" x="472.64" y="213.19" width="74.93" height="75.22"/><path d="M547.08,213.69v74.22h-73.93v-74.22h73.93m1-1h-75.93v76.22h75.93v-76.22h0Z"/></g><g class="p"><rect class="t" x="381.64" y="224.69" width="74.93" height="75.22"/><path d="M456.08,225.19v74.22h-73.93v-74.22h73.93m1-1h-75.93v76.22h75.93v-76.22h0Z"/></g><g><rect class="t" x="375.64" y="213.69" width="74.93" height="75.22"/><path d="M450.08,214.19v74.22h-73.93v-74.22h73.93m1-1h-75.93v76.22h75.93v-76.22h0Z"/></g><ellipse class="e" cx="193.55" cy="228.79" rx="147.78" ry="48.21"/><image class="f" transform="translate(150.48 207.03) scale(.12)" xlink:href="../../../Downloads/kafka-logo-wide.png"/><g class="p"><rect class="t" x="39.11" y="72.83" width="92.42" height="92.42"/><path d="M131.02,73.33v91.42H39.6V73.33h91.42m1-1H38.6v93.42h93.42V72.33h0Z"/></g><g><rect class="t" x="368.93" y="201.27" width="74.93" height="75.22"/><path d="M443.37,201.77v74.22h-73.93v-74.22h73.93m1-1h-75.93v76.22h75.93v-76.22h0Z"/></g><g class="p"><rect class="t" x="323.98" y="93.86" width="129.78" height="47.41"/><path d="M453.26,94.36v46.41h-128.78v-46.41h128.78m1-1h-130.78v48.41h130.78v-48.41h0Z"/></g><g><rect class="t" x="465.65" y="201.57" width="76.12" height="75.67"/><path d="M541.27,202.07v74.67h-75.12v-74.67h75.12m1-1h-77.12v76.67h77.12v-76.67h0Z"/></g><text class="h" transform="translate(58.49 126.59)"><tspan class="m" x="0" y="0">A</tspan><tspan x="13.59" y="0">uth</tspan></text><text class="j" transform="translate(382 223.44)"><tspan x="0" y="0">Location</tspan><tspan x="0" y="15.6">P</tspan><tspan class="v" x="8.2" y="15.6">r</tspan><tspan x="12.47" y="15.6">ofile</tspan><tspan x="0" y="31.2">*</tspan></text><text class="h" transform="translate(338.66 126.65)"><tspan x="0" y="0">Sea</tspan><tspan class="n" x="35.01" y="0">r</tspan><tspan x="41.92" y="0">ch API</tspan></text><g class="p"><rect class="t" x="323.92" y="38.5" width="129.78" height="47.41"/><path d="M453.21,39v46.41h-128.78V39h128.78m1-1h-130.78v48.41h130.78V38h0Z"/></g><text class="h" transform="translate(349.3 69.52)"><tspan x="0" y="0">Gatew</tspan><tspan class="u" x="59.49" y="0">a</tspan><tspan x="70.76" y="0">y</tspan></text><rect class="d" x="346.77" y="188.57" width="305.17" height="157"/><line class="c" x1="260.1" y1="21.49" x2="201.77" y2="94.57"/><line class="c" x1="391.1" y1="86.49" x2="391.1" y2="93.49"/><line class="c" x1="181.1" y1="13.49" x2="123.93" y2="72.5"/><g class="p"><rect class="t" x="151.92" y="93.5" width="129.78" height="47.41"/><path d="M281.21,94v46.41H152.43v-46.41h128.78m1-1H151.43v48.41h130.78v-48.41h0Z"/></g><text class="i" transform="translate(162.62 122.61)"><tspan class="w" x="0" y="0">E</tspan><tspan class="b" x="8.89" y="0">v</tspan><tspan x="16.54" y="0">ent API</tspan></text><line class="c" x1="343.6" y1="20.99" x2="360.77" y2="37.57"/><text class="h" transform="translate(480.61 231.56)"><tspan class="r" x="0" y="0">F</tspan><tspan x="11.39" y="0">eed</tspan><tspan x="1" y="25.2">Data</tspan></text><line class="c" x1="406.77" y1="142.57" x2="480.77" y2="188.57"/><line class="c" x1="230.77" y1="140.57" x2="199.77" y2="181.57"/><line class="c" x1="346.93" y1="267.5" x2="313.94" y2="256.84"/><g><rect class="t" x="565.05" y="201.47" width="76.12" height="75.67"/><path d="M640.67,201.97v74.67h-75.12v-74.67h75.12m1-1h-77.12v76.67h77.12v-76.67h0Z"/></g><text class="h" transform="translate(572.44 231.46)"><tspan x="0" y="0">Admin</tspan><tspan x="12.79" y="25.2">Log</tspan></text><image transform="translate(506.43 294) scale(.08)" xlink:href="../icons/portfolio media/Spring_Framework_logo_01.png"/><image transform="translate(565.43 299) scale(.05)" xlink:href="../icons/portfolio media/mongodb.png"/><image transform="translate(471.43 49) scale(.12)" xlink:href="../../../Downloads/aws_logo_smile_1200x630.png"/><text class="l" transform="translate(381.45 327.61) scale(1.13 1)"><tspan class="s" x="0" y="0">M</tspan><tspan x="17.58" y="0">ic</tspan><tspan class="y" x="32.27" y="0">r</tspan><tspan class="o" x="39.1" y="0">o</tspan><tspan class="g" x="50.93" y="0">S</tspan><tspan x="61.68" y="0">e</tspan><tspan class="x" x="72.48" y="0">r</tspan><tspan class="o" x="80.06" y="0">vi</tspan><tspan class="q" x="95.47" y="0">c</tspan><tspan x="104.99" y="0">es</tspan></text></g></g></svg>