<?xml version="1.0" encoding="utf-8"?>
<!-- Generator: Adobe Illustrator 24.0.1, SVG Export Plug-In . SVG Version: 6.00 Build 0)  -->
<svg version="1.1" id="Layer_1" xmlns="http://www.w3.org/2000/svg" xmlns:xlink="http://www.w3.org/1999/xlink" x="0px" y="0px"
	 viewBox="0 0 50 57.4" style="enable-background:new 0 0 50 57.4;" xml:space="preserve">
<path d="M32,15h5c0.6,0,1-0.4,1-1V7.3c0-0.5-0.4-1-0.9-1C35.5,6.2,32.4,6,30.1,6C24,6,20,9.7,20,16.4V23h-7c-0.6,0-1,0.4-1,1v7
	c0,0.6,0.4,1,1,1h7v19c0,0.6,0.4,1,1,1h7c0.6,0,1-0.4,1-1V32h7.2c0.5,0,0.9-0.4,1-0.9l0.8-7c0.1-0.6-0.4-1.1-1-1.1h-8v-5
	C29,16.4,30.3,15,32,15z"/>
</svg>
